<svg width="184" height="165" viewBox="0 0 184 165" fill="none" xmlns="http://www.w3.org/2000/svg">
<path d="M98.4363 74.6528C100.44 70.6305 103.187 67.0295 106.531 64.0426C111.907 59.3701 115.125 55.9706 113.436 55.0406C111.748 54.1107 106.16 58.0896 106.16 58.0896L110.059 41.4424C110.059 41.4424 101.079 48.6913 98.4363 53.943C95.7937 59.1948 90.5841 70.2624 90.5841 70.2624L98.4363 74.6528Z" fill="white"/>
<path d="M98.4362 75.0568C98.3729 75.0562 98.3107 75.0406 98.2545 75.0111L90.3948 70.6359C90.3108 70.589 90.2476 70.5118 90.2181 70.4198C90.1886 70.3278 90.1949 70.2279 90.2357 70.1405C90.2888 70.0338 95.4832 59.0119 98.1031 53.8135C100.723 48.6151 109.461 41.4882 109.825 41.191C109.889 41.145 109.965 41.1203 110.044 41.1203C110.123 41.1203 110.2 41.145 110.264 41.191C110.33 41.2321 110.382 41.2933 110.412 41.3658C110.442 41.4383 110.448 41.5185 110.43 41.5949L106.765 57.2435C108.515 56.0697 112.134 53.8897 113.626 54.7129C113.801 54.7999 113.952 54.93 114.065 55.0912C114.177 55.2524 114.248 55.4395 114.269 55.6352C114.421 57.0606 112.248 59.5759 106.788 64.3246C103.491 67.2833 100.778 70.8417 98.7921 74.8129C98.7705 74.8612 98.7392 74.9045 98.7001 74.9399C98.661 74.9754 98.615 75.0022 98.565 75.0187L98.4362 75.0568ZM91.0762 70.1405L98.2772 74.1498C100.298 70.2296 103.013 66.7139 106.288 63.7758C108.113 62.1828 113.679 57.3426 113.505 55.7419C113.499 55.667 113.472 55.5952 113.428 55.5346C113.384 55.4741 113.324 55.427 113.255 55.3989C112.172 54.812 108.469 56.9234 106.379 58.4478C106.316 58.4918 106.241 58.5154 106.164 58.5154C106.088 58.5155 106.013 58.4921 105.949 58.4483C105.886 58.4044 105.838 58.3423 105.81 58.2701C105.783 58.1978 105.778 58.119 105.796 58.0439L109.438 42.502C107.167 44.4609 100.874 49.9947 98.777 54.1565C96.4069 58.8213 91.9394 68.2578 91.0611 70.1176L91.0762 70.1405Z" fill="#231F20"/>
<path d="M97.8154 31.785C96.8692 31.7835 95.9447 31.4997 95.1587 30.9694C94.3728 30.4392 93.7606 29.6863 93.3995 28.8059C93.0385 27.9256 92.9448 26.9572 93.1303 26.0232C93.3158 25.0893 93.7722 24.2316 94.4417 23.5587C95.1113 22.8857 95.964 22.4277 96.8921 22.2424C97.8202 22.0572 98.782 22.153 99.656 22.5178C100.53 22.8827 101.277 23.5001 101.802 24.2922C102.328 25.0842 102.608 26.0153 102.608 26.9677C102.606 28.246 102.101 29.4713 101.202 30.3745C100.303 31.2777 99.0852 31.785 97.8154 31.785ZM97.8154 22.9126C97.019 22.9142 96.2409 23.1533 95.5794 23.5998C94.918 24.0462 94.4028 24.6801 94.0991 25.4212C93.7954 26.1623 93.7167 26.9774 93.8729 27.7635C94.0292 28.5496 94.4135 29.2714 94.9772 29.8378C95.5408 30.4041 96.2586 30.7896 97.0398 30.9454C97.821 31.1013 98.6306 31.0205 99.3662 30.7134C100.102 30.4062 100.731 29.8865 101.173 29.2198C101.615 28.5531 101.851 27.7694 101.851 26.9677C101.849 25.8915 101.423 24.8601 100.666 24.0999C99.9098 23.3396 98.8844 22.9126 97.8154 22.9126Z" fill="#231F20"/>
<path d="M66.1416 46.2064C64.1578 46.1149 62.1739 45.7719 59.872 45.5737C57.7291 45.3908 54.9729 44.5828 54.9275 42.4257C54.8896 40.5735 57.1006 39.0567 56.616 37.2654C56.4489 36.7861 56.1919 36.3436 55.8588 35.962C52.7986 31.8291 51.4451 26.6649 52.0816 21.5502C52.7181 16.4355 55.2954 11.7669 59.2738 8.52172C58.6681 8.72752 58.032 8.12536 57.9714 7.48509C57.9716 6.83979 58.2152 6.21862 58.6529 5.74721C60.1673 3.89499 62.3708 2.83549 64.6121 2.09612C71.7677 -0.274414 79.6425 -0.0152561 86.8663 2.09612C92.4317 3.73492 99.1026 8.19397 98.3681 14.9549C98.1031 17.3865 96.2101 19.757 93.8249 19.8637C92.5831 27.1049 88.8123 32.0594 84.0722 37.2883C80.8886 40.9031 76.8637 43.6662 72.3583 45.3298C70.3641 46.0334 68.2511 46.3313 66.1416 46.2064Z" fill="white"/>
<path d="M67.0124 46.6028H66.1264C64.9528 46.5494 63.7943 46.4122 62.5676 46.2598C61.6968 46.1607 60.7957 46.054 59.8417 45.9701C56.563 45.6881 54.5867 44.3694 54.5413 42.4486C54.6129 41.5051 54.9432 40.6 55.4953 39.8342C55.9951 38.9881 56.4645 38.1877 56.2525 37.3798C56.112 36.9827 55.8988 36.6155 55.6241 36.2974L55.5559 36.1983C52.5304 32.1041 51.1432 27.0152 51.6691 21.94C52.195 16.8648 54.5957 12.1737 58.3954 8.79614L58.3045 8.74278C58.0978 8.61075 57.9228 8.43428 57.7918 8.22606C57.6609 8.01783 57.5774 7.78301 57.5473 7.53846C57.5248 6.79318 57.7972 6.06938 58.3045 5.52617C59.9931 3.39955 62.613 2.35529 64.4454 1.71502C71.2603 -0.571673 79.2412 -0.571673 86.9192 1.71502C93.2948 3.59773 99.4054 8.42265 98.6937 14.9778C98.4287 17.3712 96.6417 19.9095 94.052 20.2067C92.6891 27.6994 88.6456 32.6768 84.2614 37.5322C81.0428 41.1715 76.9795 43.9525 72.4339 45.6271C70.6958 46.2631 68.8618 46.5932 67.0124 46.6028ZM66.1567 45.8405C68.2136 45.9533 70.2723 45.6553 72.2143 44.964C76.6456 43.3397 80.6042 40.6281 83.7314 37.0749C88.9712 31.2743 92.2347 26.6018 93.3933 19.8485C93.4071 19.7621 93.45 19.6831 93.5148 19.6248C93.5796 19.5666 93.6623 19.5325 93.7492 19.5283C96.0208 19.4293 97.7396 17.074 97.9668 14.955C98.6331 8.85712 92.8102 4.28373 86.7375 2.50774C79.1655 0.289648 71.3814 0.282026 64.7105 2.50774C62.9765 3.08703 60.4929 4.07793 58.9254 6.03687C58.5426 6.42961 58.3279 6.95772 58.3273 7.50797C58.3432 7.63502 58.3859 7.75718 58.4525 7.86628C58.5191 7.97539 58.608 8.06892 58.7134 8.14062C58.7731 8.18323 58.8413 8.21214 58.9132 8.22531C58.9852 8.23848 59.0592 8.23559 59.1299 8.21684C59.214 8.18767 59.3057 8.18925 59.3887 8.22131C59.4718 8.25337 59.541 8.31385 59.5842 8.39216C59.6251 8.4714 59.6376 8.5624 59.6197 8.64985C59.6018 8.7373 59.5545 8.81587 59.4858 8.87236C55.5902 12.0566 53.0672 16.6327 52.4435 21.645C51.8199 26.6573 53.1438 31.7184 56.1389 35.7715L56.2147 35.8629C56.5469 36.2594 56.8036 36.7142 56.9719 37.2045C57.2747 38.3249 56.6993 39.3006 56.1389 40.2534C55.6644 40.9003 55.3715 41.6638 55.2909 42.4638C55.3363 44.6743 58.8194 45.1469 59.8871 45.2384C60.9547 45.3298 61.765 45.4289 62.6433 45.5356C63.8548 45.6805 64.9982 45.8177 66.1416 45.871L66.1567 45.8405Z" fill="#231F20"/>
<path d="M95.7103 30.4206C95.7103 30.4206 100.837 38.9271 99.6478 40.604C98.4589 42.2809 94.7487 40.9927 94.7487 40.9927" fill="white"/>
<path d="M97.4292 41.8388C96.4758 41.8235 95.5307 41.6589 94.6276 41.351C94.5336 41.3181 94.4563 41.2492 94.4124 41.1594C94.3684 41.0695 94.3614 40.9659 94.3928 40.8708C94.4271 40.7757 94.497 40.6978 94.5875 40.6536C94.678 40.6095 94.782 40.6026 94.8774 40.6345C95.8315 40.9623 98.4969 41.5644 99.3374 40.383C100.057 39.3692 97.4595 34.0641 95.3848 30.6188C95.3587 30.5758 95.3413 30.5281 95.3336 30.4783C95.326 30.4285 95.3282 30.3777 95.3402 30.3288C95.3521 30.2799 95.3736 30.2339 95.4034 30.1934C95.4331 30.1529 95.4705 30.1187 95.5135 30.0929C95.5556 30.0668 95.6024 30.0494 95.6513 30.0418C95.7002 30.0342 95.7501 30.0365 95.798 30.0486C95.846 30.0606 95.8911 30.0822 95.9306 30.1121C95.9702 30.142 96.0034 30.1795 96.0284 30.2225C96.9067 31.6783 101.23 39.0338 99.9507 40.8251C99.6412 41.1843 99.2508 41.4637 98.8122 41.6401C98.3735 41.8164 97.8994 41.8846 97.4292 41.8388Z" fill="#231F20"/>
<path d="M94.9682 19.414C98.3226 22.3943 97.0884 28.3778 96.9067 32.2957C96.6593 37.8041 96.2807 43.3048 95.7709 48.798C95.4528 52.2814 86.4649 52.007 84.9202 50.9017L85.7985 64.7515L67.2017 56.7633L68.4056 45.3298C68.4056 45.3298 74.5238 45.6119 78.3022 38.6298C82.0807 31.6478 82.1791 16.1745 82.1791 16.1745C82.1791 16.1745 91.6896 16.5023 94.9682 19.414Z" fill="white"/>
<path d="M85.7985 65.1478C85.7487 65.1593 85.697 65.1593 85.6471 65.1478L67.0502 57.1292C66.9763 57.0949 66.9148 57.0383 66.8741 56.9673C66.8334 56.8963 66.8156 56.8144 66.8231 56.7328L68.0346 45.3603C68.0459 45.264 68.0926 45.1754 68.1654 45.112C68.2383 45.0485 68.332 45.0148 68.4283 45.0173C68.6631 45.0173 74.3572 45.1926 77.9691 38.5155C81.6642 31.7012 81.8005 16.4108 81.8005 16.2355C81.8027 16.1352 81.8434 16.0396 81.9141 15.9687C81.9496 15.9306 81.9934 15.9012 82.0419 15.8827C82.0905 15.8642 82.1426 15.8572 82.1943 15.862C82.588 15.862 91.8713 16.205 95.2181 19.1701C98.1485 21.7769 97.7548 26.4647 97.4367 30.2301C97.3762 30.9923 97.3156 31.7012 97.2853 32.3567C97.0354 37.8524 96.6492 43.409 96.1495 48.8742C96.0889 49.5526 95.6952 50.5054 94.2035 51.1609C91.7199 52.3119 87.2599 52.2052 85.3367 51.5344L86.1772 64.7439C86.1806 64.8087 86.1678 64.8733 86.14 64.9319C86.1123 64.9905 86.0704 65.0411 86.0181 65.0792C85.9534 65.1236 85.8769 65.1475 85.7985 65.1478ZM67.6257 56.5042L85.3972 64.1722L84.5567 50.9399C84.5519 50.8678 84.5676 50.7958 84.6018 50.7324C84.6361 50.6689 84.6876 50.6165 84.7503 50.5814C84.813 50.5462 84.8843 50.5297 84.9559 50.5338C85.0276 50.5379 85.0966 50.5624 85.1549 50.6045C86.1696 51.3667 91.258 51.6945 93.9082 50.4749C94.8395 50.0404 95.3469 49.4688 95.4226 48.7751C95.9223 43.3176 96.3085 37.7762 96.5584 32.2957C96.5584 31.625 96.6492 30.9008 96.7174 30.1386C97.0127 26.5409 97.3913 22.0666 94.7411 19.7113C91.9697 17.2493 84.3826 16.7081 82.5804 16.609C82.5426 19.1244 82.1564 32.41 78.6657 38.8509C75.3416 44.9487 70.1775 45.711 68.8221 45.711L67.6257 56.5042Z" fill="#231F20"/>
<path d="M95.7936 44.6819C95.7936 44.6819 91.4549 47.1439 89.365 42.6392L95.7936 44.6819Z" fill="white"/>
<path d="M93.1888 45.7338C92.7265 45.7386 92.2664 45.6692 91.8259 45.528C91.1939 45.2987 90.6171 44.9379 90.133 44.469C89.649 44.0001 89.2686 43.4338 89.0167 42.8069C88.9773 42.7135 88.975 42.6086 89.0103 42.5136C89.0455 42.4186 89.1155 42.3408 89.206 42.2962C89.2506 42.2745 89.2991 42.262 89.3486 42.2595C89.3981 42.2569 89.4476 42.2644 89.4942 42.2815C89.5408 42.2985 89.5835 42.3248 89.6198 42.3587C89.6562 42.3927 89.6854 42.4336 89.7057 42.4791C89.9179 43.0046 90.2371 43.4796 90.6426 43.8735C91.0482 44.2673 91.5312 44.5713 92.0606 44.7658C93.2594 45.0545 94.5215 44.8947 95.6119 44.3161C95.6993 44.2667 95.8025 44.2542 95.8991 44.2814C95.9956 44.3085 96.0775 44.3731 96.1268 44.4609C96.1739 44.5493 96.1852 44.6526 96.1584 44.7492C96.1315 44.8458 96.0687 44.9282 95.9829 44.9792C95.1225 45.4461 94.1658 45.7044 93.1888 45.7338Z" fill="#231F20"/>
<path d="M73.1533 33.2637C73.1183 33.2707 73.0823 33.2707 73.0473 33.2637C72.9999 33.2506 72.9555 33.228 72.9168 33.1974C72.8781 33.1668 72.8458 33.1288 72.8218 33.0855C72.7979 33.0422 72.7827 32.9946 72.7772 32.9454C72.7717 32.8961 72.776 32.8463 72.7898 32.7988C73.547 30.1081 74.0771 30.07 74.3042 30.0547C74.7283 30.0547 92.7421 27.768 102.2 26.6095C102.249 26.602 102.299 26.6046 102.348 26.6171C102.396 26.6297 102.441 26.6519 102.481 26.6825C102.52 26.7131 102.553 26.7515 102.578 26.7952C102.603 26.839 102.618 26.8873 102.624 26.9372C102.636 27.0373 102.609 27.1384 102.548 27.2184C102.487 27.2984 102.397 27.3508 102.298 27.3641C101.2 27.5013 75.9701 30.6417 74.4254 30.8093C74.0271 31.4946 73.7288 32.2339 73.5395 33.0046C73.514 33.0855 73.4618 33.1553 73.3916 33.2024C73.3214 33.2496 73.2373 33.2712 73.1533 33.2637Z" fill="#231F20"/>
<path d="M85.0792 33.5458C85.0792 32.1661 84.3902 30.8932 83.686 29.7346C83.1866 28.7722 82.543 27.893 81.7778 27.1278C81.397 26.7513 80.9381 26.4644 80.4341 26.2878C79.93 26.1112 79.3933 26.0492 78.8626 26.1064C78.4014 26.2054 77.9661 26.4011 77.5851 26.6809C77.2041 26.9606 76.886 27.3181 76.6516 27.7299C76.2052 28.5652 75.9467 29.4889 75.8944 30.4359C75.7278 32.5007 76.1032 34.5734 76.983 36.4463C77.8627 38.3192 79.2159 39.9264 80.907 41.1071L80.6193 40.7641" fill="white"/>
<path d="M80.8994 41.5187C80.8236 41.5173 80.7499 41.4934 80.6874 41.4501C78.9414 40.2245 77.5446 38.5601 76.6359 36.6224C75.7273 34.6847 75.3385 32.5413 75.5082 30.4054C75.5714 29.3963 75.8586 28.4143 76.3487 27.5318C76.6086 27.0704 76.9644 26.6708 77.3917 26.3604C77.819 26.0499 78.3078 25.8359 78.8247 25.7329C79.4121 25.6614 80.0079 25.7244 80.5678 25.9171C81.1276 26.1098 81.637 26.4272 82.058 26.8458C82.8517 27.6259 83.5232 28.5228 84.0494 29.5059C84.7082 30.6264 85.5638 32.0213 85.4957 33.5534C85.4899 33.6532 85.447 33.7471 85.3754 33.8164C85.3037 33.8857 85.2088 33.9251 85.1095 33.9269C85.0598 33.9259 85.0107 33.915 84.9652 33.895C84.9196 33.8749 84.8784 33.846 84.844 33.8099C84.8095 33.7738 84.7825 33.7312 84.7644 33.6846C84.7463 33.638 84.7375 33.5882 84.7385 33.5381C84.7385 32.2195 83.9813 30.9313 83.3982 29.8947C82.919 28.9817 82.3093 28.1445 81.5885 27.4098C81.2493 27.0711 80.8398 26.8121 80.3895 26.6513C79.9392 26.4906 79.4591 26.432 78.9837 26.4799C78.5767 26.5706 78.1931 26.7464 77.8579 26.9959C77.5226 27.2454 77.2432 27.563 77.0377 27.9281C76.5989 28.7089 76.3401 29.579 76.2805 30.474C76.1349 32.3541 76.4511 34.2413 77.2011 35.9694C77.9512 37.6974 79.1121 39.2132 80.5814 40.383C80.6433 40.3753 80.706 40.3831 80.7641 40.4057C80.8223 40.4283 80.8739 40.465 80.9146 40.5126L81.2023 40.8556C81.263 40.9251 81.2965 41.0145 81.2965 41.1071C81.2965 41.1997 81.263 41.2891 81.2023 41.3586C81.1671 41.4065 81.1215 41.4458 81.0691 41.4735C81.0166 41.5012 80.9586 41.5167 80.8994 41.5187Z" fill="#231F20"/>
<path d="M94.2955 28.0431C94.722 28.0363 95.054 27.1471 95.037 26.0569C95.02 24.9668 94.6604 24.0885 94.2339 24.0952C93.8074 24.102 93.4755 24.9912 93.4925 26.0814C93.5095 27.1715 93.869 28.0498 94.2955 28.0431Z" fill="#231F20"/>
<path d="M42.7062 153.849C42.7062 153.849 36.5653 83.6091 46.6891 69.241C56.8129 54.873 81.6718 52.5634 93.1737 61.8321C104.676 71.1009 113.421 154.481 113.421 154.481C113.421 154.481 75.3795 178.4 42.7062 153.849Z" fill="#559884"/>
<path d="M130.825 52.5764L133.667 51.637L137.152 62.3186C137.268 62.6759 137.239 63.0651 137.07 63.4007C136.902 63.7362 136.608 63.9906 136.253 64.108L136.088 64.1627C135.733 64.28 135.346 64.2506 135.013 64.0809C134.679 63.9113 134.427 63.6153 134.31 63.258L130.825 52.5764Z" fill="white"/>
<path d="M135.645 64.6067C135.269 64.6025 134.904 64.4807 134.6 64.258C134.296 64.0354 134.069 63.723 133.949 63.3642L130.466 52.693C130.428 52.6002 130.428 52.4961 130.466 52.4033C130.488 52.3581 130.518 52.3179 130.556 52.2851C130.594 52.2523 130.638 52.2277 130.685 52.2128L133.525 51.2676C133.62 51.2384 133.723 51.2475 133.812 51.2929C133.901 51.3384 133.969 51.4167 134.002 51.5115L137.485 62.1828C137.561 62.4079 137.592 62.646 137.576 62.8832C137.559 63.1203 137.497 63.3519 137.391 63.5646C137.285 63.7772 137.139 63.9667 136.96 64.122C136.781 64.2773 136.574 64.3954 136.349 64.4695L136.183 64.5228C136.009 64.5785 135.828 64.6067 135.645 64.6067ZM131.299 52.8073L134.668 63.1279C134.754 63.3891 134.94 63.6055 135.183 63.7301C135.419 63.8446 135.689 63.8663 135.94 63.7911L136.107 63.7377C136.366 63.6507 136.58 63.4638 136.702 63.2179C136.824 62.9721 136.845 62.6875 136.758 62.4267L133.396 52.1061L131.299 52.8073Z" fill="#231F20"/>
<path d="M131.427 41.7991L126.837 43.3164L130.246 53.7663L134.836 52.2491L131.427 41.7991Z" fill="white"/>
<path d="M130.239 54.1336C130.159 54.1346 130.08 54.1101 130.015 54.0635C129.95 54.017 129.901 53.9508 129.875 53.8744L126.453 43.4243C126.415 43.3315 126.415 43.2274 126.453 43.1346C126.474 43.0894 126.505 43.0491 126.543 43.0164C126.581 42.9836 126.625 42.959 126.672 42.9441L131.261 41.4196C131.308 41.4031 131.358 41.3963 131.408 41.3996C131.458 41.403 131.507 41.4165 131.551 41.4393C131.596 41.4621 131.635 41.4937 131.667 41.5322C131.699 41.5707 131.723 41.6154 131.738 41.6635L135.145 52.1137C135.183 52.2065 135.183 52.3106 135.145 52.4033C135.124 52.4486 135.093 52.4888 135.055 52.5216C135.018 52.5544 134.973 52.579 134.926 52.5939L130.337 54.1184L130.239 54.1336ZM127.308 43.5462L130.481 53.2723L134.343 51.9917L131.178 42.2809L127.308 43.5462Z" fill="#231F20"/>
<path d="M135.573 60.0252L134.221 60.4723C133.327 60.7678 132.84 61.7369 133.134 62.6368L137.998 77.5477C138.292 78.4476 139.254 78.9375 140.148 78.642L141.501 78.1949C142.395 77.8994 142.881 76.9303 142.588 76.0304L137.724 61.1195C137.43 60.2196 136.467 59.7297 135.573 60.0252Z" fill="white"/>
<path d="M139.628 79.0966C139.189 79.0967 138.761 78.9576 138.405 78.699C138.049 78.4404 137.783 78.0755 137.644 77.656L132.783 62.7468C132.696 62.485 132.662 62.2087 132.682 61.9336C132.702 61.6585 132.775 61.39 132.898 61.1436C133.022 60.8972 133.192 60.6777 133.399 60.4976C133.607 60.3175 133.848 60.1804 134.108 60.0942L135.456 59.6521C135.98 59.4787 136.551 59.5217 137.044 59.7718C137.536 60.0219 137.91 60.4586 138.083 60.986L142.952 75.9029C143.037 76.1646 143.07 76.4407 143.049 76.7153C143.029 76.9899 142.954 77.2577 142.83 77.5034C142.707 77.749 142.536 77.9677 142.328 78.1469C142.12 78.3261 141.88 78.4623 141.619 78.5478L140.272 78.9899C140.065 79.0623 139.847 79.0984 139.628 79.0966ZM136.107 60.3076C135.965 60.3081 135.825 60.3313 135.691 60.3762L134.343 60.8183C134.012 60.9327 133.74 61.1738 133.586 61.4891C133.506 61.6444 133.458 61.8141 133.445 61.9882C133.432 62.1624 133.454 62.3374 133.51 62.5029L138.371 77.4197C138.482 77.7551 138.72 78.0326 139.034 78.1913C139.348 78.3499 139.711 78.3767 140.044 78.2658L141.392 77.8237C141.726 77.7121 142.002 77.4726 142.161 77.1571C142.319 76.8416 142.348 76.4758 142.24 76.1392L137.372 61.2299C137.285 60.9625 137.117 60.7292 136.892 60.5636C136.666 60.398 136.394 60.3084 136.115 60.3076H136.107Z" fill="#231F20"/>
<path d="M128.255 52.7845C135.335 52.7845 141.074 47.0069 141.074 39.8799C141.074 32.7529 135.335 26.9753 128.255 26.9753C121.175 26.9753 115.435 32.7529 115.435 39.8799C115.435 47.0069 121.175 52.7845 128.255 52.7845Z" fill="white"/>
<path d="M128.247 53.1732C124.916 53.1786 121.706 51.9203 119.255 49.649C116.805 47.3778 115.295 44.2605 115.026 40.9184C114.757 37.5763 115.749 34.255 117.804 31.6163C119.859 28.9776 122.827 27.2154 126.115 26.6809C129.403 26.1464 132.771 26.8789 135.547 28.7324C138.322 30.5858 140.302 33.4242 141.092 36.6816C141.882 39.9391 141.423 43.3764 139.807 46.3086C138.191 49.2407 135.537 51.4523 132.374 52.5025C131.042 52.9426 129.649 53.1689 128.247 53.1732ZM128.247 27.3489C126.279 27.3504 124.339 27.8217 122.587 28.7243C120.834 29.6268 119.32 30.9348 118.167 32.5409C117.014 34.1469 116.256 36.0053 115.955 37.9634C115.654 39.9216 115.818 41.9237 116.435 43.8054C117.151 45.9981 118.455 47.949 120.203 49.4426C121.951 50.9363 124.075 51.9146 126.34 52.2696C128.606 52.6246 130.925 52.3424 133.041 51.4542C135.158 50.566 136.989 49.1064 138.333 47.2365C139.677 45.3665 140.482 43.1591 140.658 40.8578C140.834 38.5566 140.375 36.251 139.332 34.1958C138.288 32.1406 136.701 30.4156 134.745 29.2114C132.789 28.0072 130.54 27.3705 128.247 27.3717V27.3489Z" fill="#231F20"/>
<path d="M128.255 50.3606C134.005 50.3606 138.666 45.6682 138.666 39.8799C138.666 34.0916 134.005 29.3992 128.255 29.3992C122.505 29.3992 117.843 34.0916 117.843 39.8799C117.843 45.6682 122.505 50.3606 128.255 50.3606Z" fill="white"/>
<path d="M128.262 50.7417C126.274 50.7427 124.324 50.1905 122.627 49.1461C120.931 48.1017 119.554 46.6056 118.649 44.8231C117.744 43.0406 117.346 41.041 117.499 39.0451C117.651 37.0493 118.349 35.1347 119.515 33.5129C120.681 31.8911 122.269 30.6251 124.104 29.8547C125.94 29.0843 127.951 28.8395 129.916 29.1473C131.881 29.4551 133.723 30.3035 135.239 31.5989C136.755 32.8943 137.886 34.5863 138.507 36.488C139.04 38.1189 139.181 39.8537 138.919 41.5501C138.656 43.2464 137.998 44.8561 136.999 46.2469C135.999 47.6378 134.686 48.7704 133.167 49.5517C131.649 50.333 129.968 50.7408 128.262 50.7417ZM128.262 29.7727C126.141 29.7748 124.075 30.4532 122.36 31.7106C120.646 32.968 119.371 34.7397 118.718 36.7717C118.066 38.8037 118.07 40.9914 118.729 43.0212C119.388 45.0509 120.669 46.8182 122.388 48.0696C124.107 49.3211 126.176 49.9923 128.297 49.9871C130.418 49.9818 132.484 49.3003 134.196 48.0403C135.909 46.7804 137.181 45.0067 137.831 42.9737C138.48 40.9408 138.473 38.753 137.811 36.7243C137.155 34.6942 135.876 32.9265 134.156 31.6769C132.437 30.4273 130.368 29.7604 128.247 29.7727H128.262Z" fill="#231F20"/>
<path d="M126.453 83.8987L126.96 80.0875C126.96 79.9275 127.217 68.1663 128.225 67.2592C129.232 66.3522 142.301 56.809 143.217 58.1124C144.133 59.4159 142.354 61.8702 142.354 61.8702C142.354 61.8702 145.421 61.5577 145.11 63.3947C144.8 65.2317 142.967 67.0991 142.967 67.0991C142.967 67.0991 144.845 65.7119 145.133 67.7165C145.215 68.2975 145.142 68.8898 144.922 69.4334C144.703 69.9769 144.345 70.4523 143.883 70.8112C143.883 70.8112 146.647 69.5764 146.034 71.8859C145.421 74.1955 138.697 80.0723 138.697 80.0723L137.886 85.103L126.453 83.8987Z" fill="white"/>
<path d="M137.864 85.4994L126.506 84.2798H126.46C126.12 84.196 126.12 84.196 126.589 80.7507L126.68 80.0647C126.68 79.9961 126.877 68.0824 128.073 66.9924C128.83 66.2836 140.885 57.3655 143.126 57.6246C143.225 57.6298 143.321 57.6572 143.407 57.7047C143.494 57.7522 143.568 57.8186 143.626 57.899C144.383 58.9738 143.626 60.5821 143.119 61.4739C143.871 61.449 144.606 61.701 145.186 62.1828C145.338 62.3577 145.449 62.5654 145.509 62.79C145.57 63.0146 145.578 63.2501 145.534 63.4785C145.308 64.4983 144.858 65.4541 144.217 66.2759C144.39 66.2697 144.563 66.3009 144.724 66.3674C144.968 66.4911 145.174 66.679 145.321 66.9111C145.468 67.1433 145.549 67.4111 145.557 67.6861C145.685 68.5355 145.508 69.4032 145.057 70.1328C145.449 70.0718 145.848 70.1676 146.17 70.3996C146.362 70.6141 146.49 70.8792 146.538 71.164C146.587 71.4487 146.553 71.7414 146.443 72.0079C145.845 74.2946 139.984 79.5083 139.09 80.2933L138.333 85.1869C138.324 85.2392 138.305 85.2891 138.276 85.3336C138.247 85.378 138.21 85.4161 138.166 85.4453C138.122 85.4746 138.072 85.4945 138.02 85.5038C137.968 85.5131 137.915 85.5116 137.864 85.4994ZM126.907 83.5633L137.546 84.699L138.303 80.0266C138.314 79.9378 138.357 79.8562 138.424 79.7979C140.272 78.1896 145.163 73.6162 145.648 71.8097C145.754 71.3905 145.746 71.0475 145.648 70.9713C145.375 70.7426 144.535 70.9713 144.042 71.1695C143.958 71.2079 143.861 71.2128 143.773 71.1832C143.685 71.1535 143.61 71.0915 143.565 71.0094C143.517 70.9281 143.502 70.831 143.523 70.7386C143.544 70.6461 143.6 70.5656 143.679 70.5139C144.083 70.1971 144.396 69.7786 144.587 69.3008C144.779 68.823 144.842 68.3028 144.769 67.7928C144.724 67.5107 144.633 67.1677 144.398 67.0687C144.027 66.9086 143.391 67.2821 143.194 67.4269C143.118 67.4823 143.023 67.5068 142.929 67.4956C142.835 67.4843 142.749 67.438 142.687 67.3659C142.624 67.2947 142.589 67.2024 142.589 67.1068C142.589 67.0112 142.624 66.9189 142.687 66.8476C142.687 66.8476 144.451 65.0564 144.732 63.349C144.762 63.2368 144.763 63.1189 144.737 63.0058C144.711 62.8927 144.657 62.788 144.58 62.7011C144.111 62.198 142.801 62.2056 142.384 62.2437C142.311 62.251 142.237 62.2369 142.171 62.2031C142.105 62.1694 142.05 62.1173 142.013 62.0532C141.972 61.9925 141.95 61.9208 141.95 61.8474C141.95 61.774 141.972 61.7023 142.013 61.6416C142.475 61.0165 143.528 59.2024 142.929 58.3335C141.612 57.9219 129.815 66.3598 128.497 67.5565C127.74 68.3187 127.354 78.1743 127.354 80.1028C127.354 80.1028 127.316 80.4077 127.255 80.865C127.21 81.5739 126.99 82.9154 126.907 83.5633Z" fill="#231F20"/>
<path d="M93.1737 61.8397C93.1737 61.8397 100.534 66.3216 106.046 76.5889C111.559 86.8561 120.312 119.67 120.312 119.67L124.469 79.9046L140.559 83.5557C140.559 83.5557 141.937 141.485 127.687 148.002C113.436 154.519 77.0074 114.19 77.0074 114.19L93.1737 61.8397Z" fill="#559884"/>
<path d="M63.2567 59.9875L65.1042 53.9659L89.1832 56.3059L90.5689 61.8397C90.5689 61.8397 77.9918 67.8613 63.2567 59.9875Z" fill="white"/>
<path d="M79.0443 64.3856C73.4717 64.3747 67.9883 62.9764 63.0825 60.3153C63.005 60.2733 62.9445 60.2054 62.9113 60.1233C62.8782 60.0413 62.8744 59.9501 62.9008 59.8656L64.7408 53.844C64.7664 53.761 64.8194 53.6893 64.891 53.6408C64.9626 53.5922 65.0485 53.5698 65.1345 53.5772L89.2211 55.9249C89.2987 55.9316 89.3724 55.9624 89.432 56.0128C89.4916 56.0633 89.5343 56.1311 89.5543 56.2069L90.9324 61.7407C90.9546 61.8257 90.9463 61.9159 90.9089 61.9954C90.8715 62.0749 90.8074 62.1385 90.728 62.1751C87.019 63.6893 83.0464 64.4409 79.0443 64.3856ZM63.711 59.8122C67.7318 61.9806 72.1649 63.2631 76.7159 63.5746C81.2669 63.886 85.8317 63.2193 90.1071 61.6187L88.8652 56.6642L65.392 54.3775L63.711 59.8122Z" fill="#231F20"/>
<path d="M113.421 145.662C113.351 145.664 113.282 145.643 113.224 145.601C112.975 145.449 88.6532 129.793 80.0893 89.0209C80.0781 88.9718 80.0767 88.921 80.0851 88.8714C80.0936 88.8218 80.1117 88.7744 80.1385 88.7318C80.1652 88.6893 80.2001 88.6525 80.241 88.6237C80.282 88.5948 80.3282 88.5743 80.377 88.5635C80.4761 88.5451 80.5785 88.5657 80.663 88.621C80.7476 88.6763 80.8078 88.7621 80.8313 88.8608C89.3347 129.32 113.391 144.809 113.626 144.961C113.694 145.006 113.747 145.071 113.775 145.148C113.804 145.225 113.807 145.31 113.784 145.388C113.761 145.467 113.713 145.537 113.648 145.586C113.582 145.635 113.503 145.662 113.421 145.662Z" fill="#231F20"/>
<path d="M166.584 70.1373C166.56 65.3981 165.775 60.6935 164.26 56.2034C163.824 54.9151 163.33 53.6494 162.776 52.4062C162.572 51.9494 161.874 52.2898 162.078 52.7468C163.961 56.9844 165.153 61.4965 165.608 66.1114C165.738 67.4303 165.805 68.7529 165.81 70.0791C165.813 70.5755 166.587 70.638 166.584 70.1373Z" fill="#3F3D56"/>
<path d="M162.571 51.6193L163 52.9522C159.355 52.5715 158.918 47.7647 156.518 44.8676C154.117 41.9738 149.78 41.0186 149.93 37.1863C149.952 36.632 150.036 36.0115 150.451 35.6654C150.971 35.2375 151.73 35.4483 152.34 35.7136C152.984 35.9959 153.609 36.324 154.21 36.6955C154.4 37.2256 154.59 37.7559 154.779 38.2863C154.843 38.4682 154.955 38.6274 155.101 38.7456C155.248 38.8639 155.423 38.9363 155.608 38.9545C155.792 38.9727 155.977 38.936 156.142 38.8485C156.308 38.7611 156.446 38.6266 156.541 38.4604L156.55 38.4435C163.809 38.4321 164.642 44.678 162.571 51.6193Z" fill="#00BFA6"/>
<path d="M162.798 52.7675C161.016 53.4761 159.512 51.9666 157.732 51.254C155.95 50.5387 153.91 50.6292 153.101 48.8818C153.028 48.7625 152.981 48.6291 152.963 48.4904C152.945 48.3517 152.956 48.2107 152.996 48.0767C153.139 47.7589 153.541 47.672 153.885 47.642C154.365 47.6037 154.848 47.6086 155.327 47.6566C155.443 47.8666 155.556 48.0789 155.672 48.2915C155.868 48.6501 156.062 49.0087 156.258 49.3673C156.613 48.9678 156.905 48.5155 157.122 48.0265C160.404 46.6482 161.835 49.0982 162.293 52.2759L162.798 52.7675Z" fill="#00BFA6"/>
<path d="M162.798 53.3245C164.487 54.385 166.232 52.9977 168.134 52.5187C170.038 52.0371 172.081 52.4706 173.162 50.7113C173.253 50.594 173.321 50.4573 173.36 50.31C173.399 50.1628 173.409 50.0083 173.389 49.8565C173.294 49.4888 172.902 49.3287 172.559 49.2395C172.081 49.1191 171.594 49.045 171.104 49.0182C170.955 49.2266 170.809 49.4379 170.659 49.649C170.407 50.0052 170.158 50.3616 169.905 50.7178C169.608 50.2267 169.383 49.6889 169.239 49.1236C166.139 47.091 164.326 49.5091 163.383 52.8753L162.798 53.3245Z" fill="#00BFA6"/>
<path d="M162.656 52.9521C164.437 52.2412 164.545 49.9937 165.383 48.1737C166.222 46.3499 167.784 44.9729 167.223 43.0324C167.197 42.8876 167.143 42.7501 167.065 42.6289C166.986 42.5077 166.885 42.4055 166.767 42.3288C166.451 42.1819 166.097 42.3993 165.824 42.6203C165.445 42.931 165.093 43.2772 164.772 43.6547C164.826 43.9013 164.883 44.1477 164.938 44.3961C165.031 44.8158 165.126 45.2335 165.219 45.6531C164.693 45.5927 164.179 45.4459 163.695 45.2179C160.366 46.47 160.935 49.4002 162.702 52.2089L162.656 52.9521Z" fill="#00BFA6"/>
<path opacity="0.18" d="M183.96 143.452C184.695 137.194 175.009 131.306 177.566 125.193C178.506 122.949 181.044 120.975 182.087 118.738C183.238 116.283 182.502 113.676 181.166 111.245C177.999 105.535 171.679 100.484 163.052 96.7721C150.648 91.4476 134.433 89.3488 118.601 88.8924C102.77 88.436 86.9259 89.4664 71.0818 89.6669C61.0561 89.8121 50.8259 89.6324 41.235 91.285C29.8986 93.242 20.3716 97.6953 13.7923 103.061C7.21295 108.427 3.3702 114.658 1.062 120.971C0.179636 123.416 -0.504512 125.95 0.492939 128.381C2.30881 132.789 9.2654 136.043 12.4624 140.216C14.7002 143.117 15.0199 146.356 17.0852 149.306C20.4931 154.271 28.4855 158.012 37.3986 160.2C46.3118 162.389 56.152 163.226 65.8835 163.814C82.0388 164.786 98.2979 165.161 114.548 164.937C130.859 164.709 142.221 161.94 156.441 158.102C168.007 154.993 183.014 151.574 183.96 143.452Z" fill="#559884"/>
</svg>
